<svg xmlns="http://www.w3.org/2000/svg" xmlns:xlink="http://www.w3.org/1999/xlink" width="1080" zoomAndPan="magnify" viewBox="0 0 810 809.999993" height="1080" preserveAspectRatio="xMidYMid meet" version="1.0"><defs><g/><clipPath id="a512224fab"><path d="M 284 39.535156 L 597.855469 39.535156 L 597.855469 501.371094 L 284 501.371094 Z M 284 39.535156 " clip-rule="nonzero"/></clipPath><clipPath id="4e0561a8df"><path d="M 288 86 L 337 86 L 337 501.371094 L 288 501.371094 Z M 288 86 " clip-rule="nonzero"/></clipPath><clipPath id="b5a64a6297"><path d="M 240.105469 86 L 289 86 L 289 501.371094 L 240.105469 501.371094 Z M 240.105469 86 " clip-rule="nonzero"/></clipPath><clipPath id="3bbf5787f8"><path d="M 426 185 L 475 185 L 475 501.371094 L 426 501.371094 Z M 426 185 " clip-rule="nonzero"/></clipPath><clipPath id="dbdf664ae0"><path d="M 378 185 L 427 185 L 427 501.371094 L 378 501.371094 Z M 378 185 " clip-rule="nonzero"/></clipPath></defs><g clip-path="url(#a512224fab)"><path fill="#7fb714" d="M 284.121094 89.007812 L 284.121094 39.410156 L 597.855469 39.410156 L 597.855469 501.367188 L 288.171875 501.367188 L 288.171875 493.273438 L 589.753906 493.273438 L 589.753906 47.507812 L 292.226562 47.507812 L 292.226562 89.007812 Z M 284.121094 89.007812 " fill-opacity="1" fill-rule="nonzero"/></g><g clip-path="url(#4e0561a8df)"><path fill="#7fb714" d="M 288.171875 493.273438 C 293.230469 493.273438 299.816406 492.335938 304.449219 486.679688 C 309.53125 480.472656 312.691406 468.707031 310.390625 446.804688 C 307.394531 418.351562 300.75 354.160156 296.054688 303.378906 C 293.128906 271.753906 290.980469 245.5625 290.980469 236.890625 C 290.980469 224.316406 299.476562 218.777344 308.765625 212.726562 C 317.675781 206.914062 327.488281 200.519531 328.066406 185.511719 C 328.113281 184.292969 328.136719 182.785156 328.136719 181 C 328.136719 165.101562 325.273438 143.320312 318.617188 125.429688 C 312.300781 108.449219 302.652344 95.085938 289.042969 94.566406 L 288.171875 94.5625 L 288.171875 86.464844 L 289.34375 86.5 C 306.953125 87.1875 318.808594 102.800781 326.179688 122.613281 C 333.214844 141.523438 336.242188 164.378906 336.242188 181 C 336.242188 182.441406 336.207031 184.050781 336.136719 185.800781 C 335.402344 205.003906 323.746094 212.597656 313.167969 219.496094 C 305.8125 224.289062 299.082031 228.675781 299.082031 236.890625 C 299.082031 245.539062 301.203125 271.425781 304.09375 302.648438 C 308.726562 352.78125 315.40625 417.300781 318.425781 445.980469 C 321 470.429688 316.996094 484.132812 310.714844 491.796875 C 303.992188 500.011719 295.011719 501.367188 288.171875 501.367188 Z M 288.171875 493.273438 " fill-opacity="1" fill-rule="nonzero"/></g><g clip-path="url(#b5a64a6297)"><path fill="#7fb714" d="M 288.171875 501.367188 C 281.332031 501.367188 272.355469 500.011719 265.625 491.796875 C 259.34375 484.128906 255.339844 470.429688 257.914062 445.980469 C 260.9375 417.296875 267.613281 352.761719 272.25 302.625 C 275.132812 271.410156 277.257812 245.535156 277.257812 236.890625 C 277.257812 228.675781 270.53125 224.289062 263.171875 219.496094 C 252.59375 212.597656 240.941406 205.003906 240.203125 185.800781 C 240.136719 184.054688 240.105469 182.445312 240.105469 181.003906 C 240.105469 164.386719 243.128906 141.53125 250.164062 122.617188 C 257.535156 102.800781 269.394531 87.183594 287.003906 86.5 L 288.171875 86.464844 L 288.171875 94.5625 L 287.320312 94.566406 C 273.691406 95.089844 264.042969 108.449219 257.726562 125.429688 C 251.066406 143.328125 248.207031 165.113281 248.207031 181.003906 C 248.207031 182.792969 248.230469 184.300781 248.277344 185.511719 C 248.855469 200.519531 258.664062 206.917969 267.574219 212.722656 C 276.871094 218.78125 285.359375 224.3125 285.359375 236.890625 C 285.359375 245.5625 283.214844 271.742188 280.292969 303.351562 C 275.597656 354.144531 268.953125 418.355469 265.957031 446.804688 C 263.648438 468.707031 266.816406 480.476562 271.898438 486.679688 C 276.53125 492.335938 283.113281 493.273438 288.175781 493.273438 Z M 288.171875 501.367188 " fill-opacity="1" fill-rule="nonzero"/></g><g clip-path="url(#3bbf5787f8)"><path fill="#7fb714" d="M 426.476562 493.273438 C 431.535156 493.273438 438.117188 492.335938 442.75 486.679688 C 447.835938 480.472656 450.996094 468.707031 448.695312 446.804688 C 445.695312 418.347656 439.050781 354.125 434.355469 303.328125 C 431.433594 271.726562 429.289062 245.554688 429.289062 236.890625 C 429.289062 224.3125 437.777344 218.78125 447.074219 212.726562 C 455.976562 206.917969 465.792969 200.519531 466.371094 185.511719 L 474.441406 185.796875 C 473.703125 205.003906 462.050781 212.597656 451.472656 219.492188 C 444.113281 224.289062 437.386719 228.671875 437.386719 236.890625 C 437.386719 245.53125 439.507812 271.394531 442.390625 302.597656 C 447.027344 352.738281 453.707031 417.289062 456.726562 445.976562 C 459.300781 470.429688 455.296875 484.128906 449.019531 491.796875 C 442.292969 500.011719 433.316406 501.367188 426.472656 501.367188 L 426.472656 493.269531 L 426.476562 493.269531 Z M 426.476562 493.273438 " fill-opacity="1" fill-rule="nonzero"/></g><g clip-path="url(#dbdf664ae0)"><path fill="#7fb714" d="M 426.476562 501.367188 C 419.632812 501.367188 410.65625 500.011719 403.929688 491.796875 C 397.648438 484.128906 393.644531 470.429688 396.222656 445.980469 C 399.242188 417.296875 405.921875 352.753906 410.558594 302.613281 C 413.445312 271.40625 415.5625 245.535156 415.5625 236.890625 C 415.5625 228.675781 408.835938 224.289062 401.480469 219.496094 C 390.898438 212.597656 379.246094 205.003906 378.507812 185.800781 L 386.582031 185.515625 C 387.160156 200.519531 396.96875 206.917969 405.878906 212.726562 C 415.171875 218.78125 423.667969 224.320312 423.667969 236.894531 C 423.667969 245.5625 421.519531 271.738281 418.597656 303.34375 C 413.898438 354.136719 407.253906 418.351562 404.257812 446.804688 C 401.949219 468.710938 405.117188 480.476562 410.199219 486.679688 C 414.832031 492.339844 421.421875 493.273438 426.476562 493.273438 Z M 426.476562 501.367188 " fill-opacity="1" fill-rule="nonzero"/></g><path fill="#7fb714" d="M 378.496094 187.039062 L 378.496094 100.113281 C 378.496094 96.449219 379.890625 93.085938 382.140625 90.621094 C 384.46875 88.054688 387.722656 86.464844 391.320312 86.464844 C 394.917969 86.464844 398.171875 88.054688 400.507812 90.613281 C 402.75 93.085938 404.148438 96.449219 404.148438 100.113281 L 404.148438 187.042969 L 396.042969 187.042969 L 396.042969 100.113281 C 396.042969 98.503906 395.46875 97.066406 394.542969 96.054688 C 393.6875 95.132812 392.550781 94.5625 391.320312 94.5625 C 390.089844 94.5625 388.953125 95.132812 388.113281 96.054688 C 387.171875 97.066406 386.597656 98.503906 386.597656 100.113281 L 386.597656 187.042969 L 378.496094 187.042969 Z M 378.496094 187.039062 " fill-opacity="1" fill-rule="nonzero"/><path fill="#7fb714" d="M 421.695312 187.039062 C 421.695312 190.71875 420.300781 194.085938 418.058594 196.542969 C 415.707031 199.097656 412.457031 200.6875 408.871094 200.6875 C 405.273438 200.6875 402.019531 199.101562 399.683594 196.542969 C 397.4375 194.070312 396.042969 190.703125 396.042969 187.039062 L 404.144531 187.039062 C 404.144531 188.652344 404.71875 190.089844 405.648438 191.101562 C 406.5 192.023438 407.640625 192.59375 408.871094 192.59375 C 410.109375 192.59375 411.246094 192.023438 412.085938 191.109375 C 413.011719 190.078125 413.59375 188.640625 413.59375 187.039062 Z M 421.695312 187.039062 " fill-opacity="1" fill-rule="nonzero"/><path fill="#7fb714" d="M 413.59375 187.039062 L 413.59375 100.113281 C 413.59375 96.445312 414.992188 93.078125 417.246094 90.613281 C 419.582031 88.054688 422.832031 86.464844 426.417969 86.464844 C 430.003906 86.464844 433.25 88.054688 435.589844 90.613281 C 437.847656 93.066406 439.242188 96.433594 439.242188 100.113281 L 439.242188 187.042969 L 431.140625 187.042969 L 431.140625 100.113281 C 431.140625 98.515625 430.558594 97.074219 429.628906 96.050781 C 428.796875 95.132812 427.65625 94.5625 426.417969 94.5625 C 425.179688 94.5625 424.035156 95.132812 423.195312 96.050781 C 422.273438 97.066406 421.695312 98.503906 421.695312 100.113281 L 421.695312 187.042969 L 413.59375 187.042969 Z M 413.59375 187.039062 " fill-opacity="1" fill-rule="nonzero"/><path fill="#7fb714" d="M 448.695312 187.039062 L 448.695312 100.113281 C 448.695312 96.433594 450.089844 93.066406 452.332031 90.613281 C 454.6875 88.054688 457.933594 86.464844 461.519531 86.464844 C 465.117188 86.464844 468.371094 88.054688 470.707031 90.613281 C 472.949219 93.085938 474.347656 96.449219 474.347656 100.113281 L 474.347656 187.042969 L 466.246094 187.042969 L 466.246094 100.113281 C 466.246094 98.503906 465.671875 97.066406 464.746094 96.054688 C 463.890625 95.132812 462.75 94.5625 461.523438 94.5625 C 460.28125 94.5625 459.144531 95.132812 458.304688 96.046875 C 457.378906 97.074219 456.796875 98.515625 456.796875 100.113281 L 456.796875 187.042969 L 448.695312 187.042969 Z M 448.695312 187.039062 " fill-opacity="1" fill-rule="nonzero"/><path fill="#7fb714" d="M 456.796875 187.039062 C 456.796875 190.707031 455.398438 194.074219 453.144531 196.542969 C 450.804688 199.097656 447.558594 200.6875 443.972656 200.6875 C 440.386719 200.6875 437.136719 199.101562 434.796875 196.542969 C 432.539062 194.089844 431.144531 190.71875 431.144531 187.039062 L 439.246094 187.039062 C 439.246094 188.640625 439.828125 190.078125 440.765625 191.101562 C 441.59375 192.023438 442.734375 192.59375 443.972656 192.59375 C 445.210938 192.59375 446.355469 192.019531 447.195312 191.097656 C 448.121094 190.085938 448.695312 188.652344 448.695312 187.039062 Z M 456.796875 187.039062 " fill-opacity="1" fill-rule="nonzero"/><g fill="#ffffff" fill-opacity="1"><g transform="translate(114.698853, 660.877365)"><g><path d="M 86.949219 0 L 100.589844 0 L 100.589844 -108.492188 L 86.949219 -108.492188 L 86.949219 -61.839844 L 29.449219 -61.839844 L 29.449219 -108.492188 L 15.808594 -108.492188 L 15.808594 0 L 29.449219 0 L 29.449219 -48.820312 L 86.949219 -48.820312 Z M 86.949219 0 "/></g></g></g><g fill="#ffffff" fill-opacity="1"><g transform="translate(226.409249, 660.877365)"><g><path d="M 49.285156 2.015625 C 67.421875 2.015625 82.300781 -7.75 88.808594 -23.402344 L 74.085938 -23.402344 C 69.125 -14.878906 59.980469 -10.230469 49.441406 -10.230469 C 34.097656 -10.230469 23.25 -19.839844 21.234375 -35.027344 L 90.824219 -35.027344 C 91.753906 -63.082031 75.171875 -82.453125 49.441406 -82.453125 C 25.109375 -82.453125 8.058594 -65.097656 8.058594 -40.296875 C 8.058594 -15.34375 24.953125 2.015625 49.285156 2.015625 Z M 21.386719 -46.496094 C 23.714844 -60.757812 34.5625 -70.210938 49.441406 -70.210938 C 64.164062 -70.210938 75.015625 -61.222656 77.804688 -46.496094 Z M 21.386719 -46.496094 "/></g></g></g><g fill="#ffffff" fill-opacity="1"><g transform="translate(320.301499, 660.877365)"><g><path d="M 14.414062 0 L 27.433594 0 L 27.433594 -114.691406 L 14.414062 -114.691406 Z M 14.414062 0 "/></g></g></g><g fill="#ffffff" fill-opacity="1"><g transform="translate(357.485682, 660.877365)"><g><path d="M 49.132812 0 L 61.222656 0 L 61.222656 -12.554688 L 49.75 -12.554688 C 39.058594 -12.554688 34.097656 -17.980469 34.097656 -29.601562 L 34.097656 -68.503906 L 60.136719 -68.503906 L 60.136719 -80.441406 L 34.097656 -80.441406 L 34.097656 -100.433594 L 24.023438 -100.433594 L 22.785156 -89.585938 C 21.855469 -82.300781 19.683594 -80.441406 12.246094 -80.441406 L 4.183594 -80.441406 L 4.183594 -68.503906 L 21.078125 -68.503906 L 21.078125 -28.984375 C 21.078125 -10.539062 31.308594 0 49.132812 0 Z M 49.132812 0 "/></g></g></g><g fill="#ffffff" fill-opacity="1"><g transform="translate(421.629406, 660.877365)"><g><path d="M 14.414062 0 L 27.433594 0 L 27.433594 -80.441406 L 14.414062 -80.441406 Z M 10.382812 -103.84375 C 10.382812 -98.109375 14.570312 -93.769531 20.921875 -93.769531 C 27.277344 -93.769531 31.308594 -98.109375 31.308594 -103.84375 C 31.308594 -109.734375 27.277344 -114.074219 20.921875 -114.074219 C 14.570312 -114.074219 10.382812 -109.734375 10.382812 -103.84375 Z M 10.382812 -103.84375 "/></g></g></g><g fill="#ffffff" fill-opacity="1"><g transform="translate(458.813575, 660.877365)"><g><path d="M 22.164062 -88.652344 L 22.164062 -80.441406 L 4.648438 -80.441406 L 4.648438 -68.503906 L 22.164062 -68.503906 L 22.164062 0 L 35.183594 0 L 35.183594 -68.503906 L 63.234375 -68.503906 L 63.234375 -80.441406 L 35.183594 -80.441406 L 35.183594 -87.878906 C 35.183594 -99.503906 40.140625 -104.464844 51.457031 -104.464844 L 64.011719 -104.464844 L 64.011719 -116.707031 L 50.214844 -116.707031 C 32.082031 -116.707031 22.164062 -106.941406 22.164062 -88.652344 Z M 22.164062 -88.652344 "/></g></g></g><g fill="#ffffff" fill-opacity="1"><g transform="translate(519.703551, 660.877365)"><g><path d="M 46.496094 2.015625 C 57.191406 2.015625 67.574219 -2.324219 74.550781 -11.777344 L 75.945312 0 L 86.640625 0 L 86.640625 -80.441406 L 73.621094 -80.441406 L 73.621094 -39.832031 C 73.621094 -22.320312 63.234375 -10.539062 48.203125 -10.539062 C 34.40625 -10.539062 25.882812 -20.769531 25.882812 -36.886719 L 25.882812 -80.441406 L 12.863281 -80.441406 L 12.863281 -35.648438 C 12.863281 -12.710938 25.417969 2.015625 46.496094 2.015625 Z M 46.496094 2.015625 "/></g></g></g><g fill="#ffffff" fill-opacity="1"><g transform="translate(616.074836, 660.877365)"><g><path d="M 49.132812 2.015625 C 62.152344 2.015625 73.308594 -3.410156 80.59375 -12.398438 L 82.144531 0 L 92.839844 0 L 92.839844 -114.691406 L 79.820312 -114.691406 L 79.820312 -69.125 C 72.535156 -77.496094 61.6875 -82.453125 49.132812 -82.453125 C 25.261719 -82.453125 8.058594 -64.628906 8.058594 -40.296875 C 8.058594 -15.808594 25.261719 2.015625 49.132812 2.015625 Z M 21.078125 -40.296875 C 21.078125 -57.65625 33.324219 -70.054688 50.683594 -70.054688 C 68.195312 -70.054688 80.285156 -57.65625 80.285156 -40.296875 C 80.285156 -22.785156 68.195312 -10.539062 50.683594 -10.539062 C 33.324219 -10.539062 21.078125 -22.785156 21.078125 -40.296875 Z M 21.078125 -40.296875 "/></g></g></g><g fill="#ffffff" fill-opacity="1"><g transform="translate(212.782793, 755.595571)"><g><path d="M 28.8125 -23.984375 L 28.8125 0 L 26.390625 0 L 26.390625 -19.1875 L 16.96875 -3.046875 L 15.765625 -3.046875 L 6.34375 -19.078125 L 6.34375 0 L 3.90625 0 L 3.90625 -23.984375 L 6 -23.984375 L 16.40625 -6.203125 L 26.734375 -23.984375 Z M 28.8125 -23.984375 "/></g></g></g><g fill="#ffffff" fill-opacity="1"><g transform="translate(266.067625, 755.595571)"><g><path d="M 20.875 -2.1875 L 20.875 0 L 3.90625 0 L 3.90625 -23.984375 L 20.359375 -23.984375 L 20.359375 -21.796875 L 6.4375 -21.796875 L 6.4375 -13.265625 L 18.84375 -13.265625 L 18.84375 -11.109375 L 6.4375 -11.109375 L 6.4375 -2.1875 Z M 20.875 -2.1875 "/></g></g></g><g fill="#ffffff" fill-opacity="1"><g transform="translate(309.552142, 755.595571)"><g><path d="M 18.953125 -6.40625 L 5.578125 -6.40625 L 2.703125 0 L 0.0625 0 L 11.03125 -23.984375 L 13.53125 -23.984375 L 24.5 0 L 21.828125 0 Z M 18.03125 -8.46875 L 12.265625 -21.34375 L 6.515625 -8.46875 Z M 18.03125 -8.46875 "/></g></g></g><g fill="#ffffff" fill-opacity="1"><g transform="translate(354.681467, 755.595571)"><g><path d="M 3.90625 -23.984375 L 6.4375 -23.984375 L 6.4375 -2.1875 L 19.875 -2.1875 L 19.875 0 L 3.90625 0 Z M 3.90625 -23.984375 "/></g></g></g><g fill="#ffffff" fill-opacity="1"><g transform="translate(395.424634, 755.595571)"><g/></g></g><g fill="#ffffff" fill-opacity="1"><g transform="translate(424.962531, 755.595571)"><g><path d="M 12.890625 -23.984375 C 15.941406 -23.984375 18.335938 -23.25 20.078125 -21.78125 C 21.816406 -20.320312 22.6875 -18.316406 22.6875 -15.765625 C 22.6875 -13.203125 21.816406 -11.195312 20.078125 -9.75 C 18.335938 -8.300781 15.941406 -7.578125 12.890625 -7.578125 L 6.4375 -7.578125 L 6.4375 0 L 3.90625 0 L 3.90625 -23.984375 Z M 12.8125 -9.796875 C 15.1875 -9.796875 17 -10.316406 18.25 -11.359375 C 19.507812 -12.398438 20.140625 -13.867188 20.140625 -15.765625 C 20.140625 -17.703125 19.507812 -19.191406 18.25 -20.234375 C 17 -21.273438 15.1875 -21.796875 12.8125 -21.796875 L 6.4375 -21.796875 L 6.4375 -9.796875 Z M 12.8125 -9.796875 "/></g></g></g><g fill="#ffffff" fill-opacity="1"><g transform="translate(470.126093, 755.595571)"><g><path d="M 20.28125 0 L 14.796875 -7.703125 C 14.179688 -7.640625 13.546875 -7.609375 12.890625 -7.609375 L 6.4375 -7.609375 L 6.4375 0 L 3.90625 0 L 3.90625 -23.984375 L 12.890625 -23.984375 C 15.941406 -23.984375 18.335938 -23.25 20.078125 -21.78125 C 21.816406 -20.320312 22.6875 -18.316406 22.6875 -15.765625 C 22.6875 -13.890625 22.210938 -12.304688 21.265625 -11.015625 C 20.316406 -9.722656 18.960938 -8.789062 17.203125 -8.21875 L 23.0625 0 Z M 12.8125 -9.765625 C 15.1875 -9.765625 17 -10.289062 18.25 -11.34375 C 19.507812 -12.394531 20.140625 -13.867188 20.140625 -15.765625 C 20.140625 -17.703125 19.507812 -19.191406 18.25 -20.234375 C 17 -21.273438 15.1875 -21.796875 12.8125 -21.796875 L 6.4375 -21.796875 L 6.4375 -9.765625 Z M 12.8125 -9.765625 "/></g></g></g><g fill="#ffffff" fill-opacity="1"><g transform="translate(515.460981, 755.595571)"><g><path d="M 20.875 -2.1875 L 20.875 0 L 3.90625 0 L 3.90625 -23.984375 L 20.359375 -23.984375 L 20.359375 -21.796875 L 6.4375 -21.796875 L 6.4375 -13.265625 L 18.84375 -13.265625 L 18.84375 -11.109375 L 6.4375 -11.109375 L 6.4375 -2.1875 Z M 20.875 -2.1875 "/></g></g></g><g fill="#ffffff" fill-opacity="1"><g transform="translate(558.945486, 755.595571)"><g><path d="M 12.890625 -23.984375 C 15.941406 -23.984375 18.335938 -23.25 20.078125 -21.78125 C 21.816406 -20.320312 22.6875 -18.316406 22.6875 -15.765625 C 22.6875 -13.203125 21.816406 -11.195312 20.078125 -9.75 C 18.335938 -8.300781 15.941406 -7.578125 12.890625 -7.578125 L 6.4375 -7.578125 L 6.4375 0 L 3.90625 0 L 3.90625 -23.984375 Z M 12.8125 -9.796875 C 15.1875 -9.796875 17 -10.316406 18.25 -11.359375 C 19.507812 -12.398438 20.140625 -13.867188 20.140625 -15.765625 C 20.140625 -17.703125 19.507812 -19.191406 18.25 -20.234375 C 17 -21.273438 15.1875 -21.796875 12.8125 -21.796875 L 6.4375 -21.796875 L 6.4375 -9.796875 Z M 12.8125 -9.796875 "/></g></g></g><g fill="#ffffff" fill-opacity="1"><g transform="translate(604.109048, 755.595571)"><g><path d="M 10.515625 0.203125 C 8.734375 0.203125 7.023438 -0.078125 5.390625 -0.640625 C 3.765625 -1.210938 2.503906 -1.96875 1.609375 -2.90625 L 2.609375 -4.859375 C 3.472656 -3.992188 4.625 -3.289062 6.0625 -2.75 C 7.5 -2.21875 8.984375 -1.953125 10.515625 -1.953125 C 12.660156 -1.953125 14.269531 -2.34375 15.34375 -3.125 C 16.425781 -3.914062 16.96875 -4.941406 16.96875 -6.203125 C 16.96875 -7.160156 16.675781 -7.925781 16.09375 -8.5 C 15.507812 -9.070312 14.789062 -9.507812 13.9375 -9.8125 C 13.09375 -10.125 11.921875 -10.460938 10.421875 -10.828125 C 8.609375 -11.285156 7.164062 -11.722656 6.09375 -12.140625 C 5.019531 -12.566406 4.097656 -13.210938 3.328125 -14.078125 C 2.566406 -14.953125 2.1875 -16.128906 2.1875 -17.609375 C 2.1875 -18.816406 2.503906 -19.914062 3.140625 -20.90625 C 3.785156 -21.90625 4.769531 -22.703125 6.09375 -23.296875 C 7.425781 -23.890625 9.070312 -24.1875 11.03125 -24.1875 C 12.40625 -24.1875 13.75 -24 15.0625 -23.625 C 16.375 -23.25 17.507812 -22.726562 18.46875 -22.0625 L 17.609375 -20.046875 C 16.609375 -20.703125 15.535156 -21.195312 14.390625 -21.53125 C 13.242188 -21.863281 12.125 -22.03125 11.03125 -22.03125 C 8.925781 -22.03125 7.34375 -21.625 6.28125 -20.8125 C 5.21875 -20 4.6875 -18.957031 4.6875 -17.6875 C 4.6875 -16.71875 4.976562 -15.941406 5.5625 -15.359375 C 6.144531 -14.785156 6.875 -14.34375 7.75 -14.03125 C 8.632812 -13.71875 9.820312 -13.378906 11.3125 -13.015625 C 13.070312 -12.585938 14.492188 -12.160156 15.578125 -11.734375 C 16.660156 -11.316406 17.578125 -10.675781 18.328125 -9.8125 C 19.085938 -8.957031 19.46875 -7.800781 19.46875 -6.34375 C 19.46875 -5.125 19.140625 -4.019531 18.484375 -3.03125 C 17.835938 -2.039062 16.835938 -1.253906 15.484375 -0.671875 C 14.140625 -0.0859375 12.484375 0.203125 10.515625 0.203125 Z M 10.515625 0.203125 "/></g></g></g><g fill="#ffffff" fill-opacity="1"><g transform="translate(429.224681, 801.284397)"><g/></g></g></svg>